<svg width="404.37001953124997px" height="336.8375px" xmlns="http://www.w3.org/2000/svg" viewBox="47.81499023437502 -93.41874999999999 404.37001953124997 336.8375" style="background: rgba(0, 0, 0, 0);" preserveAspectRatio="xMidYMid"><defs><filter id="editing-extrusion" x="-100%" y="-100%" width="300%" height="300%"><feFlood result="color1" flood-color="#444"></feFlood><feConvolveMatrix order="8,8" divisor="1" kernelMatrix="1 0 0 0 0 0 0 0 0 1 0 0 0 0 0 0 0 0 1 0 0 0 0 0 0 0 0 1 0 0 0 0 0 0 0 0 1 0 0 0 0 0 0 0 0 1 0 0 0 0 0 0 0 0 1 0 0 0 0 0 0 0 0 1" in="SourceAlpha" result="extrude"></feConvolveMatrix><feComposite in="color1" in2="extrude" result="comp-extrude" operator="in"></feComposite><feOffset dx="4" dy="4" in="comp-extrude" result="offset-extrude"></feOffset><feMerge><feMergeNode in="offset-extrude"></feMergeNode><feMergeNode in="SourceGraphic"></feMergeNode></feMerge></filter></defs><g filter="url(#editing-extrusion)"><g transform="translate(110.89999389648438, 145.0999984741211)"><path d="M24 0L2 0L26-132L69-132L100.20-41.20L116.80-132L139-131.80L114.60 0L68.80 0L40-87.40L24 0ZM147-48.80L147-48.80L147-48.80Q147-86.60 166.60-110.40L166.60-110.40L166.60-110.40Q187.40-136.20 223.60-136.20L223.60-136.20L223.60-136.20Q249.80-136.20 263-123.50L263-123.50L263-123.50Q276.20-110.80 276.20-84L276.20-84L276.20-84Q276.20-43.20 255.40-19.40L255.40-19.40L255.40-19.40Q234.80 4 200.20 4L200.20 4L200.20 4Q173.20 4 160.10-9.50L160.10-9.50L160.10-9.50Q147-23 147-48.80ZM199.60-90.20L199.60-90.20L199.60-90.20Q190.60-54.20 190.60-25.80L190.60-25.80L190.60-25.80Q190.60-19 192.90-14.60L192.90-14.60L192.90-14.60Q195.20-10.20 201.30-10.20L201.30-10.20L201.30-10.20Q207.40-10.20 211.20-13.10L211.20-13.10L211.20-13.10Q215-16 218-22.60L218-22.60L218-22.60Q222.80-33.40 227.30-56.30L227.30-56.30L227.30-56.30Q231.80-79.20 232.20-88.70L232.20-88.70L232.20-88.70Q232.60-98.20 232.60-105.40L232.60-105.40L232.60-105.40Q232.60-112.60 230.40-117.20L230.40-117.20L230.40-117.20Q228.20-121.80 222.30-121.80L222.30-121.80L222.30-121.80Q216.40-121.80 212.40-118.20L212.40-118.20L212.40-118.20Q205-111.40 199.60-90.20Z" fill="#ccc"></path></g></g><style>text {
  font-size: 64px;
  font-family: Arial Black;
  dominant-baseline: central;
  text-anchor: middle;
}</style></svg>